<?xml version="1.0" encoding="UTF-8" standalone="no"?>
<!-- Created with Inkscape (http://www.inkscape.org/) -->

<svg
   width="254mm"
   height="150mm"
   viewBox="0 0 254 150"
   version="1.1"
   id="svg1"
   inkscape:version="1.4.3 (0d15f75, 2025-12-25)"
   sodipodi:docname="AppLayoutAndProgress.svg"
   xml:space="preserve"
   xmlns:inkscape="http://www.inkscape.org/namespaces/inkscape"
   xmlns:sodipodi="http://sodipodi.sourceforge.net/DTD/sodipodi-0.dtd"
   xmlns="http://www.w3.org/2000/svg"
   xmlns:svg="http://www.w3.org/2000/svg"><sodipodi:namedview
     id="namedview1"
     pagecolor="#505050"
     bordercolor="#eeeeee"
     borderopacity="1"
     inkscape:showpageshadow="0"
     inkscape:pageopacity="0"
     inkscape:pagecheckerboard="0"
     inkscape:deskcolor="#505050"
     inkscape:document-units="mm"
     inkscape:zoom="2.0792508"
     inkscape:cx="331.12889"
     inkscape:cy="201.75536"
     inkscape:window-width="3440"
     inkscape:window-height="1369"
     inkscape:window-x="-8"
     inkscape:window-y="348"
     inkscape:window-maximized="1"
     inkscape:current-layer="layer1" /><defs
     id="defs1"><marker
       style="overflow:visible"
       id="RoundedArrow"
       refX="0"
       refY="0"
       orient="auto-start-reverse"
       inkscape:stockid="Rounded arrow"
       markerWidth="0.25"
       markerHeight="0.3"
       viewBox="0 0 1 1"
       inkscape:isstock="true"
       inkscape:collect="always"
       preserveAspectRatio="xMidYMid"><path
         transform="scale(0.7)"
         d="m -0.21114562,-4.1055728 6.42229122,3.21114561 a 1,1 90 0 1 0,1.78885438 L -0.21114562,4.1055728 A 1.236068,1.236068 31.717474 0 1 -2,3 v -6 a 1.236068,1.236068 148.28253 0 1 1.78885438,-1.1055728 z"
         style="fill:context-stroke;fill-rule:evenodd;stroke:none"
         id="path8" /></marker><marker
       style="overflow:visible"
       id="marker17"
       refX="0"
       refY="0"
       orient="auto-start-reverse"
       inkscape:stockid="Rounded arrow"
       markerWidth="0.4"
       markerHeight="0.4"
       viewBox="0 0 1 1"
       inkscape:isstock="true"
       inkscape:collect="always"
       preserveAspectRatio="xMidYMid"><path
         transform="scale(0.7)"
         d="m -0.21114562,-4.1055728 6.42229122,3.21114561 a 1,1 90 0 1 0,1.78885438 L -0.21114562,4.1055728 A 1.236068,1.236068 31.717474 0 1 -2,3 v -6 a 1.236068,1.236068 148.28253 0 1 1.78885438,-1.1055728 z"
         style="fill:context-stroke;fill-rule:evenodd;stroke:none"
         id="path17" /></marker><rect
       x="14.187803"
       y="88.733884"
       width="147.40886"
       height="40.399167"
       id="rect6" /><rect
       x="14.428274"
       y="88.493413"
       width="145.72557"
       height="103.40263"
       id="rect5" /><rect
       x="1.4428274"
       y="0"
       width="154.86347"
       height="73.103254"
       id="rect3" /><rect
       x="199.59112"
       y="40.399167"
       width="168.32986"
       height="67.331945"
       id="rect2" /><rect
       x="14.187803"
       y="88.733887"
       width="147.40886"
       height="40.399166"
       id="rect6-4" /><rect
       x="1.4428273"
       y="0"
       width="154.86346"
       height="73.103256"
       id="rect3-2" /><rect
       x="14.187803"
       y="88.733887"
       width="147.40886"
       height="40.399166"
       id="rect6-41" /><rect
       x="14.187803"
       y="88.733887"
       width="147.40886"
       height="40.399166"
       id="rect6-41-1" /><rect
       x="14.187803"
       y="88.733887"
       width="147.40886"
       height="40.399166"
       id="rect6-41-1-6" /><rect
       x="14.187803"
       y="88.733887"
       width="147.40886"
       height="40.399166"
       id="rect6-41-1-6-8" /><rect
       x="1.4428273"
       y="0"
       width="154.86346"
       height="73.103256"
       id="rect3-1" /><rect
       x="14.187803"
       y="88.733887"
       width="147.40886"
       height="40.399166"
       id="rect6-41-8" /><rect
       x="14.187803"
       y="88.733887"
       width="147.40886"
       height="40.399166"
       id="rect6-41-1-4" /><rect
       x="14.187803"
       y="88.733887"
       width="147.40886"
       height="40.399166"
       id="rect6-41-1-6-9" /><rect
       x="14.187803"
       y="88.733887"
       width="147.40886"
       height="40.399166"
       id="rect6-41-1-6-8-6" /><rect
       x="1.4428273"
       y="0"
       width="154.86346"
       height="73.103256"
       id="rect3-6" /><rect
       x="14.187803"
       y="88.733887"
       width="147.40886"
       height="40.399166"
       id="rect6-41-0" /><rect
       x="14.187803"
       y="88.733887"
       width="147.40886"
       height="40.399166"
       id="rect6-41-1-1" /><rect
       x="14.187803"
       y="88.733887"
       width="147.40886"
       height="40.399166"
       id="rect6-41-1-6-6" /><rect
       x="14.187803"
       y="88.733887"
       width="147.40886"
       height="40.399166"
       id="rect6-41-1-6-8-5" /><rect
       x="14.187803"
       y="88.733887"
       width="147.40886"
       height="40.399166"
       id="rect6-41-1-6-8-5-4" /><marker
       style="overflow:visible"
       id="marker17-4"
       refX="0"
       refY="0"
       orient="auto-start-reverse"
       inkscape:stockid="Rounded arrow"
       markerWidth="0.40000001"
       markerHeight="0.40000001"
       viewBox="0 0 1 1"
       inkscape:isstock="true"
       inkscape:collect="always"
       preserveAspectRatio="xMidYMid"><path
         transform="scale(0.7)"
         d="m -0.21114562,-4.1055728 6.42229122,3.21114561 a 1,1 90 0 1 0,1.78885438 L -0.21114562,4.1055728 A 1.236068,1.236068 31.717474 0 1 -2,3 v -6 a 1.236068,1.236068 148.28253 0 1 1.78885438,-1.1055728 z"
         style="fill:context-stroke;fill-rule:evenodd;stroke:none"
         id="path17-9" /></marker><marker
       style="overflow:visible"
       id="marker17-3"
       refX="0"
       refY="0"
       orient="auto-start-reverse"
       inkscape:stockid="Rounded arrow"
       markerWidth="0.40000001"
       markerHeight="0.40000001"
       viewBox="0 0 1 1"
       inkscape:isstock="true"
       inkscape:collect="always"
       preserveAspectRatio="xMidYMid"><path
         transform="scale(0.7)"
         d="m -0.21114562,-4.1055728 6.42229122,3.21114561 a 1,1 90 0 1 0,1.78885438 L -0.21114562,4.1055728 A 1.236068,1.236068 31.717474 0 1 -2,3 v -6 a 1.236068,1.236068 148.28253 0 1 1.78885438,-1.1055728 z"
         style="fill:context-stroke;fill-rule:evenodd;stroke:none"
         id="path17-3" /></marker><marker
       style="overflow:visible"
       id="marker17-8"
       refX="0"
       refY="0"
       orient="auto-start-reverse"
       inkscape:stockid="Rounded arrow"
       markerWidth="0.40000001"
       markerHeight="0.40000001"
       viewBox="0 0 1 1"
       inkscape:isstock="true"
       inkscape:collect="always"
       preserveAspectRatio="xMidYMid"><path
         transform="scale(0.7)"
         d="m -0.21114562,-4.1055728 6.42229122,3.21114561 a 1,1 90 0 1 0,1.78885438 L -0.21114562,4.1055728 A 1.236068,1.236068 31.717474 0 1 -2,3 v -6 a 1.236068,1.236068 148.28253 0 1 1.78885438,-1.1055728 z"
         style="fill:context-stroke;fill-rule:evenodd;stroke:none"
         id="path17-8" /></marker><rect
       x="1.4428273"
       y="0"
       width="154.86346"
       height="73.103256"
       id="rect3-1-8" /><rect
       x="14.187803"
       y="88.733887"
       width="147.40886"
       height="40.399166"
       id="rect6-41-8-2" /><rect
       x="14.187803"
       y="88.733887"
       width="147.40886"
       height="40.399166"
       id="rect6-41-1-4-8" /><rect
       x="14.187803"
       y="88.733887"
       width="147.40886"
       height="40.399166"
       id="rect6-41-1-6-9-9" /><rect
       x="14.187803"
       y="88.733887"
       width="147.40886"
       height="40.399166"
       id="rect6-41-1-6-8-6-0" /><rect
       x="1.4428273"
       y="0"
       width="154.86346"
       height="73.103256"
       id="rect3-1-8-8" /><rect
       x="14.187803"
       y="88.733887"
       width="147.40886"
       height="40.399166"
       id="rect6-41-8-2-1" /><rect
       x="14.187803"
       y="88.733887"
       width="147.40886"
       height="40.399166"
       id="rect6-41-1-4-8-9" /><rect
       x="14.187803"
       y="88.733887"
       width="147.40886"
       height="40.399166"
       id="rect6-41-1-6-9-9-5" /><rect
       x="14.187803"
       y="88.733887"
       width="147.40886"
       height="40.399166"
       id="rect6-41-1-6-8-6-0-3" /><marker
       style="overflow:visible"
       id="marker17-1"
       refX="0"
       refY="0"
       orient="auto-start-reverse"
       inkscape:stockid="Rounded arrow"
       markerWidth="0.40000001"
       markerHeight="0.40000001"
       viewBox="0 0 1 1"
       inkscape:isstock="true"
       inkscape:collect="always"
       preserveAspectRatio="xMidYMid"><path
         transform="scale(0.7)"
         d="m -0.21114562,-4.1055728 6.42229122,3.21114561 a 1,1 90 0 1 0,1.78885438 L -0.21114562,4.1055728 A 1.236068,1.236068 31.717474 0 1 -2,3 v -6 a 1.236068,1.236068 148.28253 0 1 1.78885438,-1.1055728 z"
         style="fill:context-stroke;fill-rule:evenodd;stroke:none"
         id="path17-6" /></marker><marker
       style="overflow:visible"
       id="RoundedArrow-1"
       refX="0"
       refY="0"
       orient="auto-start-reverse"
       inkscape:stockid="Rounded arrow"
       markerWidth="0.25"
       markerHeight="0.30000001"
       viewBox="0 0 1 1"
       inkscape:isstock="true"
       inkscape:collect="always"
       preserveAspectRatio="xMidYMid"><path
         transform="scale(0.7)"
         d="m -0.21114562,-4.1055728 6.42229122,3.21114561 a 1,1 90 0 1 0,1.78885438 L -0.21114562,4.1055728 A 1.236068,1.236068 31.717474 0 1 -2,3 v -6 a 1.236068,1.236068 148.28253 0 1 1.78885438,-1.1055728 z"
         style="fill:context-stroke;fill-rule:evenodd;stroke:none"
         id="path8-8" /></marker><marker
       style="overflow:visible"
       id="RoundedArrow-2"
       refX="0"
       refY="0"
       orient="auto-start-reverse"
       inkscape:stockid="Rounded arrow"
       markerWidth="0.25"
       markerHeight="0.30000001"
       viewBox="0 0 1 1"
       inkscape:isstock="true"
       inkscape:collect="always"
       preserveAspectRatio="xMidYMid"><path
         transform="scale(0.7)"
         d="m -0.21114562,-4.1055728 6.42229122,3.21114561 a 1,1 90 0 1 0,1.78885438 L -0.21114562,4.1055728 A 1.236068,1.236068 31.717474 0 1 -2,3 v -6 a 1.236068,1.236068 148.28253 0 1 1.78885438,-1.1055728 z"
         style="fill:context-stroke;fill-rule:evenodd;stroke:none"
         id="path8-9" /></marker></defs><g
     inkscape:label="Ebene 1"
     inkscape:groupmode="layer"
     id="layer1"><rect
       style="fill:#93aca7;stroke:#000000;stroke-width:0.5;stroke-linecap:butt;stroke-linejoin:miter;stroke-miterlimit:1;stroke-dasharray:none"
       id="rect1"
       width="49.5"
       height="18.196657"
       x="0.25"
       y="0.25"
       ry="4"
       rx="4" /><text
       xml:space="preserve"
       transform="matrix(0.26458333,0,0,0.26458333,3.9790611,7.0635121)"
       id="text2"
       style="font-size:16px;line-height:1.25;font-family:'Times New Roman';-inkscape-font-specification:'Times New Roman, ';text-align:center;white-space:pre;shape-inside:url(#rect3);display:inline"
       x="77.431732"
       y="0"><tspan
         x="60.304688"
         y="14.201933"
         id="tspan18"><tspan
           style="font-weight:bold;font-family:'Futura Md BT';-inkscape-font-specification:'Futura Md BT Bold'"
           id="tspan17">User</tspan></tspan></text><rect
       style="fill:#93aca7;stroke:#000000;stroke-width:0.5;stroke-linecap:butt;stroke-linejoin:miter;stroke-miterlimit:1;stroke-dasharray:none"
       id="rect1-8"
       width="49.5"
       height="18.196657"
       x="60.574989"
       y="0.25"
       ry="4"
       rx="4" /><text
       xml:space="preserve"
       transform="matrix(0.26458333,0,0,0.26458333,64.437376,7.1523955)"
       id="text2-2"
       style="font-size:16px;line-height:1.25;font-family:'Times New Roman';-inkscape-font-specification:'Times New Roman, ';text-align:center;white-space:pre;shape-inside:url(#rect3-1);display:inline"
       x="77.431732"
       y="0"><tspan
         x="37.050781"
         y="14.201933"
         id="tspan20"><tspan
           style="font-family:'Futura Md BT';-inkscape-font-specification:'Futura Md BT'"
           id="tspan19">Load Data</tspan></tspan></text><g
       id="g19"
       transform="translate(0,0.13779354)"><rect
         style="fill:#ffffff;stroke:#1a1a1a;stroke-width:0.499999;stroke-linecap:butt;stroke-linejoin:miter;stroke-miterlimit:1;stroke-dasharray:none"
         id="rect4-7-2-0-4-7-4"
         width="41.54084"
         height="10.179948"
         x="68.534149"
         y="37.027081"
         rx="4"
         ry="3.9999998" /><text
         xml:space="preserve"
         transform="matrix(0.26458333,0,0,0.26458333,73.972172,16.335998)"
         id="text5-42-7"
         style="font-size:16px;line-height:1.25;font-family:'Times New Roman';-inkscape-font-specification:'Times New Roman, ';white-space:pre;shape-inside:url(#rect6-41-8);display:inline"><tspan
           x="14.1875"
           y="102.93631"
           id="tspan22"><tspan
             style="font-family:'Futura Lt BT';-inkscape-font-specification:'Futura Lt BT'"
             id="tspan21">Data Preview</tspan></tspan></text></g><g
       id="g18"
       transform="translate(0,-0.7589601)"><rect
         style="fill:#ffffff;stroke:#1a1a1a;stroke-width:0.499999;stroke-linecap:butt;stroke-linejoin:miter;stroke-miterlimit:1;stroke-dasharray:none"
         id="rect4-7-2-0-4-7-0"
         width="41.54084"
         height="10.179948"
         x="68.534149"
         y="52.372917"
         rx="4"
         ry="3.9999998" /><text
         xml:space="preserve"
         transform="matrix(0.26458333,0,0,0.26458333,68.059355,31.368675)"
         id="text5-42-5-1"
         style="font-size:16px;line-height:1.25;font-family:'Times New Roman';-inkscape-font-specification:'Times New Roman, ';white-space:pre;shape-inside:url(#rect6-41-1-4);display:inline"><tspan
           x="14.1875"
           y="102.93631"
           id="tspan24"><tspan
             style="font-family:'Futura Lt BT';-inkscape-font-specification:'Futura Lt BT'"
             id="tspan23">Plot: Missing Values</tspan></tspan></text></g><g
       id="g17"
       transform="translate(0,0.46095877)"><rect
         style="fill:#ffffff;stroke:#1a1a1a;stroke-width:0.499999;stroke-linecap:butt;stroke-linejoin:miter;stroke-miterlimit:1;stroke-dasharray:none"
         id="rect4-7-2-0-4-7-3"
         width="41.54084"
         height="10.179948"
         x="68.534149"
         y="65.602081"
         rx="4"
         ry="3.9999998" /><text
         xml:space="preserve"
         transform="matrix(0.26458333,0,0,0.26458333,72.321627,44.54513)"
         id="text5-42-5-0-0"
         style="font-size:16px;line-height:1.25;font-family:'Times New Roman';-inkscape-font-specification:'Times New Roman, ';white-space:pre;shape-inside:url(#rect6-41-1-6-9);display:inline"><tspan
           x="14.1875"
           y="102.93631"
           id="tspan26"><tspan
             style="font-family:'Futura Lt BT';-inkscape-font-specification:'Futura Lt BT'"
             id="tspan25">Data Summary</tspan></tspan></text></g><rect
       style="fill:#ffffff;stroke:#1a1a1a;stroke-width:0.499999;stroke-linecap:butt;stroke-linejoin:miter;stroke-miterlimit:1;stroke-dasharray:none"
       id="rect4-7-2-0-4-7"
       width="41.54084"
       height="10.179948"
       x="68.534149"
       y="22.715792"
       rx="4"
       ry="3.9999998" /><text
       xml:space="preserve"
       transform="matrix(0.26458333,0,0,0.26458333,66.569008,2.1280624)"
       id="text5-42-5-0-4-3"
       style="font-size:16px;line-height:1.25;font-family:'Times New Roman';-inkscape-font-specification:'Times New Roman, ';white-space:pre;shape-inside:url(#rect6-41-1-6-8-6);display:inline"><tspan
         x="14.1875"
         y="102.93631"
         id="tspan28"><tspan
           style="font-family:'Futura Lt BT';-inkscape-font-specification:'Futura Lt BT'"
           id="tspan27">Data Structure Check</tspan></tspan></text><g
       id="g15"
       transform="translate(1.0224204,-1.3985973)"><rect
         style="fill:#ffffff;stroke:#1a1a1a;stroke-width:0.499999;stroke-linecap:butt;stroke-linejoin:miter;stroke-miterlimit:1;stroke-dasharray:none"
         id="rect4-7-2-0-4-0-5"
         width="41.54084"
         height="10.179948"
         x="7.1867399"
         y="24.114389"
         rx="4"
         ry="3.9999998" /><g
         style="fill:currentColor;stroke-width:0.473569"
         id="g8"
         transform="matrix(0.55870042,0,0,0.55870042,35.334937,24.732526)"><path
           fill-rule="evenodd"
           d="M 14,4.5 V 14 a 2,2 0 0 1 -2,2 h -1 v -1 h 1 a 1,1 0 0 0 1,-1 V 4.5 H 11 A 1.5,1.5 0 0 1 9.5,3 V 1 H 4 A 1,1 0 0 0 3,2 v 9 H 2 V 2 A 2,2 0 0 1 4,0 H 9.5 Z M 3.517,14.841 a 1.13,1.13 0 0 0 0.401,0.823 q 0.195,0.162 0.478,0.252 0.284,0.091 0.665,0.091 0.507,0 0.859,-0.158 0.354,-0.158 0.539,-0.44 0.187,-0.284 0.187,-0.656 0,-0.336 -0.134,-0.56 A 1,1 0 0 0 6.137,13.836 2,2 0 0 0 5.571,13.626 L 4.95,13.482 A 1,1 0 0 1 4.546,13.306 0.37,0.37 0 0 1 4.402,13.007 q 0,-0.234 0.185,-0.384 0.188,-0.152 0.512,-0.152 0.214,0 0.37,0.068 a 0.6,0.6 0 0 1 0.246,0.181 0.56,0.56 0 0 1 0.12,0.258 h 0.75 a 1.1,1.1 0 0 0 -0.2,-0.566 1.2,1.2 0 0 0 -0.5,-0.41 1.8,1.8 0 0 0 -0.78,-0.152 q -0.439,0 -0.776,0.15 -0.337,0.149 -0.527,0.421 -0.19,0.273 -0.19,0.639 0,0.302 0.122,0.524 0.124,0.223 0.352,0.367 0.228,0.143 0.539,0.213 l 0.618,0.144 q 0.31,0.073 0.463,0.193 a 0.39,0.39 0 0 1 0.152,0.326 0.5,0.5 0 0 1 -0.085,0.29 0.56,0.56 0 0 1 -0.255,0.193 q -0.167,0.07 -0.413,0.07 -0.175,0 -0.32,-0.04 A 0.8,0.8 0 0 1 4.537,15.225 0.58,0.58 0 0 1 4.282,14.841 Z M 0.806,13.693 q 0,-0.373 0.102,-0.633 A 0.87,0.87 0 0 1 1.21,12.661 0.8,0.8 0 0 1 1.685,12.524 q 0.225,0 0.398,0.097 a 0.7,0.7 0 0 1 0.272,0.26 0.85,0.85 0 0 1 0.12,0.381 H 3.24 V 13.19 A 1.33,1.33 0 0 0 2.774,12.226 1.4,1.4 0 0 0 2.285,11.954 1.8,1.8 0 0 0 1.679,11.857 q -0.534,0 -0.911,0.223 Q 0.393,12.302 0.196,12.712 0.001,13.122 0,13.691 v 0.498 q 0,0.568 0.193,0.976 0.197,0.407 0.572,0.626 0.375,0.217 0.914,0.217 0.439,0 0.785,-0.164 Q 2.81,15.68 3.014,15.39 A 1.27,1.27 0 0 0 3.24,14.716 V 14.64 H 2.476 A 0.8,0.8 0 0 1 2.358,15.003 0.7,0.7 0 0 1 2.086,15.253 0.9,0.9 0 0 1 1.685,15.34 0.85,0.85 0 0 1 1.207,15.208 0.83,0.83 0 0 1 0.908,14.816 1.7,1.7 0 0 1 0.806,14.189 Z m 8.239,2.238 H 8.092 L 6.754,11.932 h 0.917 l 0.896,3.138 h 0.038 l 0.888,-3.138 h 0.879 z"
           id="path1"
           style="stroke-width:0.473569" /></g><g
         style="fill:currentColor;stroke-width:0.473523"
         id="g9"
         transform="matrix(0.55875554,0,0,0.55875554,11.919442,24.732364)"><path
           fill-rule="evenodd"
           d="M 14,4.5 V 11 H 13 V 4.5 H 11 A 1.5,1.5 0 0 1 9.5,3 V 1 H 4 A 1,1 0 0 0 3,2 v 9 H 2 V 2 A 2,2 0 0 1 4,0 H 9.5 Z M 7.86,14.841 a 1.13,1.13 0 0 0 0.401,0.823 q 0.195,0.162 0.479,0.252 0.284,0.091 0.665,0.091 0.507,0 0.858,-0.158 0.355,-0.158 0.54,-0.44 a 1.17,1.17 0 0 0 0.187,-0.656 q 0,-0.336 -0.135,-0.56 A 1,1 0 0 0 10.48,13.836 2,2 0 0 0 9.915,13.626 L 9.294,13.482 A 1,1 0 0 1 8.889,13.306 0.37,0.37 0 0 1 8.746,13.007 q 0,-0.234 0.184,-0.384 0.188,-0.152 0.513,-0.152 0.214,0 0.37,0.068 a 0.6,0.6 0 0 1 0.245,0.181 0.56,0.56 0 0 1 0.12,0.258 h 0.75 a 1.1,1.1 0 0 0 -0.199,-0.566 1.2,1.2 0 0 0 -0.5,-0.41 1.8,1.8 0 0 0 -0.78,-0.152 q -0.44,0 -0.777,0.15 -0.336,0.149 -0.527,0.421 -0.19,0.273 -0.19,0.639 0,0.302 0.123,0.524 0.123,0.222 0.351,0.367 0.229,0.143 0.54,0.213 l 0.618,0.144 q 0.31,0.073 0.462,0.193 a 0.39,0.39 0 0 1 0.153,0.326 0.5,0.5 0 0 1 -0.085,0.29 0.56,0.56 0 0 1 -0.255,0.193 q -0.168,0.07 -0.413,0.07 -0.176,0 -0.32,-0.04 A 0.8,0.8 0 0 1 8.88,15.225 0.58,0.58 0 0 1 8.625,14.841 Z M 4.134,11.932 h 0.893 l -1.274,2.007 1.254,1.992 H 4.099 L 3.249,14.516 H 3.214 L 2.361,15.931 H 1.5 L 2.74,13.915 1.512,11.932 h 0.931 l 0.832,1.438 h 0.036 z m 1.923,3.325 h 1.697 v 0.674 H 5.266 v -3.999 h 0.791 z m 7.636,-3.325 h 0.893 l -1.274,2.007 1.254,1.992 h -0.908 l -0.85,-1.415 h -0.035 l -0.853,1.415 h -0.861 l 1.24,-2.016 -1.228,-1.983 h 0.931 l 0.832,1.438 h 0.036 z"
           id="path1-6"
           style="stroke-width:0.473523" /></g></g><path
       style="fill:none;stroke:#000000;stroke-width:2.5;stroke-linecap:butt;stroke-linejoin:miter;stroke-dasharray:none;stroke-opacity:1"
       d="M 55.162496,26.555766 V 84.100428"
       id="path15" /><path
       style="fill:none;stroke:#000000;stroke-width:2.5;stroke-linecap:butt;stroke-linejoin:miter;stroke-dasharray:none;stroke-opacity:1"
       d="m 56.413263,27.805766 h -6.67467"
       id="path16" /><path
       style="fill:none;stroke:#000000;stroke-width:2.5;stroke-linecap:butt;stroke-linejoin:miter;stroke-miterlimit:2.6;stroke-dasharray:none;stroke-opacity:1;marker-start:url(#marker17)"
       d="m 63.542671,27.805763 h -7.12419"
       id="path16-4" /><path
       style="fill:none;stroke:#000000;stroke-width:2.5;stroke-linecap:butt;stroke-linejoin:miter;stroke-miterlimit:2.6;stroke-dasharray:none;stroke-opacity:1;marker-start:url(#marker17-4)"
       d="m 63.549397,42.254848 h -7.12419"
       id="path16-4-5" /><path
       style="fill:none;stroke:#000000;stroke-width:2.5;stroke-linecap:butt;stroke-linejoin:miter;stroke-miterlimit:2.6;stroke-dasharray:none;stroke-opacity:1;marker-start:url(#marker17-3)"
       d="m 63.549397,56.703931 h -7.12419"
       id="path16-4-3" /><path
       style="fill:none;stroke:#000000;stroke-width:2.5;stroke-linecap:butt;stroke-linejoin:miter;stroke-miterlimit:2.6;stroke-dasharray:none;stroke-opacity:1;marker-start:url(#marker17-8)"
       d="m 63.549397,71.153014 h -7.12419"
       id="path16-4-8" /><path
       style="fill:none;stroke:#000000;stroke-width:2.5;stroke-linecap:butt;stroke-linejoin:miter;stroke-dasharray:none;stroke-opacity:1"
       d="M 114.38388,82.850424 H 53.912494"
       id="path15-7" /><g
       id="g21-2"
       transform="translate(-209.48126,8.4987416)"><rect
         style="fill:#93aca7;stroke:#000000;stroke-width:0.5;stroke-linecap:butt;stroke-linejoin:miter;stroke-miterlimit:1;stroke-dasharray:none"
         id="rect1-8-1-5"
         width="49.5"
         height="18.196657"
         x="121.92931"
         y="0.70070577"
         ry="4"
         rx="4" /><text
         xml:space="preserve"
         transform="matrix(0.26458333,0,0,0.26458333,125.79168,7.6031023)"
         id="text2-2-5-8"
         style="font-size:16px;line-height:1.25;font-family:'Times New Roman';-inkscape-font-specification:'Times New Roman, ';text-align:center;white-space:pre;shape-inside:url(#rect3-1-8-8);display:inline"
         x="77.431732"
         y="0"><tspan
           x="37.050781"
           y="14.201933"
           id="tspan30"><tspan
             style="font-family:'Futura Md BT';-inkscape-font-specification:'Futura Md BT'"
             id="tspan29">Load Data</tspan></tspan></text><g
         style="fill:currentColor;stroke-width:0.473569"
         id="g8-3-8-7"
         transform="matrix(0.55870042,0,0,0.55870042,159.62415,8.5153883)"><path
           fill-rule="evenodd"
           d="M 14,4.5 V 14 a 2,2 0 0 1 -2,2 h -1 v -1 h 1 a 1,1 0 0 0 1,-1 V 4.5 H 11 A 1.5,1.5 0 0 1 9.5,3 V 1 H 4 A 1,1 0 0 0 3,2 v 9 H 2 V 2 A 2,2 0 0 1 4,0 H 9.5 Z M 3.517,14.841 a 1.13,1.13 0 0 0 0.401,0.823 q 0.195,0.162 0.478,0.252 0.284,0.091 0.665,0.091 0.507,0 0.859,-0.158 0.354,-0.158 0.539,-0.44 0.187,-0.284 0.187,-0.656 0,-0.336 -0.134,-0.56 A 1,1 0 0 0 6.137,13.836 2,2 0 0 0 5.571,13.626 L 4.95,13.482 A 1,1 0 0 1 4.546,13.306 0.37,0.37 0 0 1 4.402,13.007 q 0,-0.234 0.185,-0.384 0.188,-0.152 0.512,-0.152 0.214,0 0.37,0.068 a 0.6,0.6 0 0 1 0.246,0.181 0.56,0.56 0 0 1 0.12,0.258 h 0.75 a 1.1,1.1 0 0 0 -0.2,-0.566 1.2,1.2 0 0 0 -0.5,-0.41 1.8,1.8 0 0 0 -0.78,-0.152 q -0.439,0 -0.776,0.15 -0.337,0.149 -0.527,0.421 -0.19,0.273 -0.19,0.639 0,0.302 0.122,0.524 0.124,0.223 0.352,0.367 0.228,0.143 0.539,0.213 l 0.618,0.144 q 0.31,0.073 0.463,0.193 a 0.39,0.39 0 0 1 0.152,0.326 0.5,0.5 0 0 1 -0.085,0.29 0.56,0.56 0 0 1 -0.255,0.193 q -0.167,0.07 -0.413,0.07 -0.175,0 -0.32,-0.04 A 0.8,0.8 0 0 1 4.537,15.225 0.58,0.58 0 0 1 4.282,14.841 Z M 0.806,13.693 q 0,-0.373 0.102,-0.633 A 0.87,0.87 0 0 1 1.21,12.661 0.8,0.8 0 0 1 1.685,12.524 q 0.225,0 0.398,0.097 a 0.7,0.7 0 0 1 0.272,0.26 0.85,0.85 0 0 1 0.12,0.381 H 3.24 V 13.19 A 1.33,1.33 0 0 0 2.774,12.226 1.4,1.4 0 0 0 2.285,11.954 1.8,1.8 0 0 0 1.679,11.857 q -0.534,0 -0.911,0.223 Q 0.393,12.302 0.196,12.712 0.001,13.122 0,13.691 v 0.498 q 0,0.568 0.193,0.976 0.197,0.407 0.572,0.626 0.375,0.217 0.914,0.217 0.439,0 0.785,-0.164 Q 2.81,15.68 3.014,15.39 A 1.27,1.27 0 0 0 3.24,14.716 V 14.64 H 2.476 A 0.8,0.8 0 0 1 2.358,15.003 0.7,0.7 0 0 1 2.086,15.253 0.9,0.9 0 0 1 1.685,15.34 0.85,0.85 0 0 1 1.207,15.208 0.83,0.83 0 0 1 0.908,14.816 1.7,1.7 0 0 1 0.806,14.189 Z m 8.239,2.238 H 8.092 L 6.754,11.932 h 0.917 l 0.896,3.138 h 0.038 l 0.888,-3.138 h 0.879 z"
           id="path1-5-6-2"
           style="stroke-width:0.473569" /></g><g
         style="fill:currentColor;stroke-width:0.473523"
         id="g9-9-1-2"
         transform="matrix(0.55875554,0,0,0.55875554,125.07449,8.5150643)"><path
           fill-rule="evenodd"
           d="M 14,4.5 V 11 H 13 V 4.5 H 11 A 1.5,1.5 0 0 1 9.5,3 V 1 H 4 A 1,1 0 0 0 3,2 v 9 H 2 V 2 A 2,2 0 0 1 4,0 H 9.5 Z M 7.86,14.841 a 1.13,1.13 0 0 0 0.401,0.823 q 0.195,0.162 0.479,0.252 0.284,0.091 0.665,0.091 0.507,0 0.858,-0.158 0.355,-0.158 0.54,-0.44 a 1.17,1.17 0 0 0 0.187,-0.656 q 0,-0.336 -0.135,-0.56 A 1,1 0 0 0 10.48,13.836 2,2 0 0 0 9.915,13.626 L 9.294,13.482 A 1,1 0 0 1 8.889,13.306 0.37,0.37 0 0 1 8.746,13.007 q 0,-0.234 0.184,-0.384 0.188,-0.152 0.513,-0.152 0.214,0 0.37,0.068 a 0.6,0.6 0 0 1 0.245,0.181 0.56,0.56 0 0 1 0.12,0.258 h 0.75 a 1.1,1.1 0 0 0 -0.199,-0.566 1.2,1.2 0 0 0 -0.5,-0.41 1.8,1.8 0 0 0 -0.78,-0.152 q -0.44,0 -0.777,0.15 -0.336,0.149 -0.527,0.421 -0.19,0.273 -0.19,0.639 0,0.302 0.123,0.524 0.123,0.222 0.351,0.367 0.229,0.143 0.54,0.213 l 0.618,0.144 q 0.31,0.073 0.462,0.193 a 0.39,0.39 0 0 1 0.153,0.326 0.5,0.5 0 0 1 -0.085,0.29 0.56,0.56 0 0 1 -0.255,0.193 q -0.168,0.07 -0.413,0.07 -0.176,0 -0.32,-0.04 A 0.8,0.8 0 0 1 8.88,15.225 0.58,0.58 0 0 1 8.625,14.841 Z M 4.134,11.932 h 0.893 l -1.274,2.007 1.254,1.992 H 4.099 L 3.249,14.516 H 3.214 L 2.361,15.931 H 1.5 L 2.74,13.915 1.512,11.932 h 0.931 l 0.832,1.438 h 0.036 z m 1.923,3.325 h 1.697 v 0.674 H 5.266 v -3.999 h 0.791 z m 7.636,-3.325 h 0.893 l -1.274,2.007 1.254,1.992 h -0.908 l -0.85,-1.415 h -0.035 l -0.853,1.415 h -0.861 l 1.24,-2.016 -1.228,-1.983 h 0.931 l 0.832,1.438 h 0.036 z"
           id="path1-6-8-2-9"
           style="stroke-width:0.473523" /></g><g
         id="g19-4-4"
         transform="translate(61.354307,0.58850035)"><rect
           style="fill:#ffffff;stroke:#1a1a1a;stroke-width:0.499999;stroke-linecap:butt;stroke-linejoin:miter;stroke-miterlimit:1;stroke-dasharray:none"
           id="rect4-7-2-0-4-7-4-2-1"
           width="41.54084"
           height="10.179948"
           x="68.534149"
           y="37.027081"
           rx="4"
           ry="3.9999998" /><text
           xml:space="preserve"
           transform="matrix(0.26458333,0,0,0.26458333,73.972172,16.335998)"
           id="text5-42-7-5-9"
           style="font-size:16px;line-height:1.25;font-family:'Times New Roman';-inkscape-font-specification:'Times New Roman, ';white-space:pre;shape-inside:url(#rect6-41-8-2-1);display:inline"><tspan
             x="14.1875"
             y="102.93631"
             id="tspan32"><tspan
               style="font-family:'Futura Lt BT';-inkscape-font-specification:'Futura Lt BT'"
               id="tspan31">Data Preview</tspan></tspan></text></g><g
         id="g18-6-8"
         transform="translate(61.354307,-0.30825365)"><rect
           style="fill:#ffffff;stroke:#1a1a1a;stroke-width:0.499999;stroke-linecap:butt;stroke-linejoin:miter;stroke-miterlimit:1;stroke-dasharray:none"
           id="rect4-7-2-0-4-7-0-2-2"
           width="41.54084"
           height="10.179948"
           x="68.534149"
           y="52.372917"
           rx="4"
           ry="3.9999998" /><text
           xml:space="preserve"
           transform="matrix(0.26458333,0,0,0.26458333,68.059355,31.368675)"
           id="text5-42-5-1-6-5"
           style="font-size:16px;line-height:1.25;font-family:'Times New Roman';-inkscape-font-specification:'Times New Roman, ';white-space:pre;shape-inside:url(#rect6-41-1-4-8-9);display:inline"><tspan
             x="14.1875"
             y="102.93631"
             id="tspan34"><tspan
               style="font-family:'Futura Lt BT';-inkscape-font-specification:'Futura Lt BT'"
               id="tspan33">Plot: Missing Values</tspan></tspan></text></g><g
         id="g17-5-1"
         transform="translate(61.354307,0.91166535)"><rect
           style="fill:#ffffff;stroke:#1a1a1a;stroke-width:0.499999;stroke-linecap:butt;stroke-linejoin:miter;stroke-miterlimit:1;stroke-dasharray:none"
           id="rect4-7-2-0-4-7-3-3-2"
           width="41.54084"
           height="10.179948"
           x="68.534149"
           y="65.602081"
           rx="4"
           ry="3.9999998" /><text
           xml:space="preserve"
           transform="matrix(0.26458333,0,0,0.26458333,72.321627,44.54513)"
           id="text5-42-5-0-0-9-5"
           style="font-size:16px;line-height:1.25;font-family:'Times New Roman';-inkscape-font-specification:'Times New Roman, ';white-space:pre;shape-inside:url(#rect6-41-1-6-9-9-5);display:inline"><tspan
             x="14.1875"
             y="102.93631"
             id="tspan36"><tspan
               style="font-family:'Futura Lt BT';-inkscape-font-specification:'Futura Lt BT'"
               id="tspan35">Data Summary</tspan></tspan></text></g><rect
         style="fill:#ffffff;stroke:#1a1a1a;stroke-width:0.499999;stroke-linecap:butt;stroke-linejoin:miter;stroke-miterlimit:1;stroke-dasharray:none"
         id="rect4-7-2-0-4-7-2-3"
         width="41.54084"
         height="10.179948"
         x="129.88847"
         y="23.166498"
         rx="4"
         ry="3.9999998" /><text
         xml:space="preserve"
         transform="matrix(0.26458333,0,0,0.26458333,127.92331,2.5787683)"
         id="text5-42-5-0-4-3-4-9"
         style="font-size:16px;line-height:1.25;font-family:'Times New Roman';-inkscape-font-specification:'Times New Roman, ';white-space:pre;shape-inside:url(#rect6-41-1-6-8-6-0-3);display:inline"><tspan
           x="14.1875"
           y="102.93631"
           id="tspan38"><tspan
             style="font-family:'Futura Lt BT';-inkscape-font-specification:'Futura Lt BT'"
             id="tspan37">Data Structure Check</tspan></tspan></text></g><g
       id="g20-2-6"
       transform="translate(-148.12448,9.4670696)"><rect
         style="fill:#93aca7;stroke:#00ccff;stroke-width:2.5;stroke-linecap:butt;stroke-linejoin:miter;stroke-miterlimit:2.6;stroke-dasharray:none"
         id="rect19-0-7"
         width="7.822536"
         height="9.5377617"
         x="51.25"
         y="5.3087554"
         rx="4"
         ry="4" /><text
         xml:space="preserve"
         style="font-size:2.46944px;line-height:1.25;font-family:'Times New Roman';-inkscape-font-specification:'Times New Roman, ';stroke-width:0.264583"
         x="51.192234"
         y="10.982454"
         id="text19-0-9"><tspan
           sodipodi:role="line"
           id="tspan19-3-9"
           style="font-size:2.46944px;stroke-width:0.264583"
           x="51.192234"
           y="10.982454">Spacer</tspan></text></g><path
       style="fill:none;stroke:#000000;stroke-width:2.5;stroke-linecap:butt;stroke-linejoin:miter;stroke-dasharray:none;stroke-opacity:1"
       d="M 115.48626,26.555766 V 84.100428"
       id="path15-5" /><rect
       style="fill:#93aca7;stroke:#000000;stroke-width:0.5;stroke-linecap:butt;stroke-linejoin:miter;stroke-miterlimit:1;stroke-dasharray:none"
       id="rect1-8-1"
       width="49.5"
       height="18.196657"
       x="120.89752"
       y="0.25"
       ry="4"
       rx="4" /><text
       xml:space="preserve"
       transform="matrix(0.26458333,0,0,0.26458333,124.75989,7.1523965)"
       id="text2-2-5"
       style="font-size:16px;line-height:1.25;font-family:'Times New Roman';-inkscape-font-specification:'Times New Roman, ';text-align:center;white-space:pre;shape-inside:url(#rect3-1-8);display:inline"
       x="77.431732"
       y="0"><tspan
         x="48.308594"
         y="14.201933"
         id="tspan40"><tspan
           style="font-family:'Futura Md BT';-inkscape-font-specification:'Futura Md BT'"
           id="tspan39">Median</tspan></tspan></text><rect
       style="fill:#ffffff;stroke:#1a1a1a;stroke-width:0.499999;stroke-linecap:butt;stroke-linejoin:miter;stroke-miterlimit:1;stroke-dasharray:none"
       id="rect4-7-2-0-4-7-4-2"
       width="41.54084"
       height="10.179948"
       x="128.85667"
       y="37.164875"
       rx="4"
       ry="3.9999998" /><text
       xml:space="preserve"
       transform="matrix(0.26458333,0,0,0.26458333,132.38267,16.105857)"
       id="text5-42-7-5"
       style="font-size:16px;line-height:1.25;font-family:'Times New Roman';-inkscape-font-specification:'Times New Roman, ';white-space:pre;shape-inside:url(#rect6-41-8-2);display:inline"><tspan
         x="14.1875"
         y="102.93631"
         id="tspan42"><tspan
           style="font-family:'Futura Lt BT';-inkscape-font-specification:'Futura Lt BT'"
           id="tspan41">Data Grouping</tspan></tspan></text><rect
       style="fill:#ffffff;stroke:#1a1a1a;stroke-width:0.499999;stroke-linecap:butt;stroke-linejoin:miter;stroke-miterlimit:1;stroke-dasharray:none"
       id="rect4-7-2-0-4-7-0-2"
       width="41.54084"
       height="10.179948"
       x="128.85667"
       y="51.613956"
       rx="4"
       ry="3.9999998" /><text
       xml:space="preserve"
       transform="matrix(0.26458333,0,0,0.26458333,129.47535,30.609715)"
       id="text5-42-5-1-6"
       style="font-size:16px;line-height:1.25;font-family:'Times New Roman';-inkscape-font-specification:'Times New Roman, ';white-space:pre;shape-inside:url(#rect6-41-1-4-8);display:inline"><tspan
         x="14.1875"
         y="102.93631"
         id="tspan44"><tspan
           style="font-family:'Futura Lt BT';-inkscape-font-specification:'Futura Lt BT'"
           id="tspan43">Data Quality Filter</tspan></tspan></text><rect
       style="fill:#ffffff;stroke:#1a1a1a;stroke-width:0.499999;stroke-linecap:butt;stroke-linejoin:miter;stroke-miterlimit:1;stroke-dasharray:none"
       id="rect4-7-2-0-4-7-3-3"
       width="41.54084"
       height="10.179948"
       x="128.85667"
       y="66.063042"
       rx="4"
       ry="3.9999998" /><text
       xml:space="preserve"
       transform="matrix(0.26458333,0,0,0.26458333,129.71513,45.0588)"
       id="text5-42-5-0-0-9"
       style="font-size:16px;line-height:1.25;font-family:'Times New Roman';-inkscape-font-specification:'Times New Roman, ';white-space:pre;shape-inside:url(#rect6-41-1-6-9-9);display:inline"><tspan
         x="14.1875"
         y="102.93631"
         id="tspan46"><tspan
           style="font-family:'Futura Lt BT';-inkscape-font-specification:'Futura Lt BT'"
           id="tspan45">Goupwise Median</tspan></tspan></text><rect
       style="fill:#ffffff;stroke:#1a1a1a;stroke-width:0.499999;stroke-linecap:butt;stroke-linejoin:miter;stroke-miterlimit:1;stroke-dasharray:none"
       id="rect4-7-2-0-4-7-2"
       width="41.54084"
       height="10.179948"
       x="128.76671"
       y="23.165686"
       rx="4"
       ry="3.9999998" /><text
       xml:space="preserve"
       transform="matrix(0.26458333,0,0,0.26458333,129.30277,1.71155)"
       id="text5-42-5-0-4-3-4"
       style="font-size:16px;line-height:1.25;font-family:'Times New Roman';-inkscape-font-specification:'Times New Roman, ';white-space:pre;shape-inside:url(#rect6-41-1-6-8-6-0);display:inline"><tspan
         x="14.1875"
         y="102.93631"
         id="tspan48"><tspan
           style="font-family:'Futura Lt BT';-inkscape-font-specification:'Futura Lt BT'"
           id="tspan47">Excel Style Filtering</tspan></tspan></text><g
       style="fill:currentColor"
       id="g22"
       transform="matrix(0.26458333,0,0,0.26458333,130.38421,7.472494)"><path
         d="M 2,2 A 2,2 0 0 1 4,0 h 8 a 2,2 0 0 1 2,2 v 12 a 2,2 0 0 1 -2,2 H 4 A 2,2 0 0 1 2,14 Z m 2,0.5 v 2 A 0.5,0.5 0 0 0 4.5,5 h 7 A 0.5,0.5 0 0 0 12,4.5 v -2 A 0.5,0.5 0 0 0 11.5,2 h -7 A 0.5,0.5 0 0 0 4,2.5 m 0,4 v 1 A 0.5,0.5 0 0 0 4.5,8 h 1 A 0.5,0.5 0 0 0 6,7.5 v -1 A 0.5,0.5 0 0 0 5.5,6 h -1 A 0.5,0.5 0 0 0 4,6.5 M 4.5,9 A 0.5,0.5 0 0 0 4,9.5 v 1 A 0.5,0.5 0 0 0 4.5,11 h 1 A 0.5,0.5 0 0 0 6,10.5 v -1 A 0.5,0.5 0 0 0 5.5,9 Z M 4,12.5 v 1 A 0.5,0.5 0 0 0 4.5,14 h 1 A 0.5,0.5 0 0 0 6,13.5 v -1 A 0.5,0.5 0 0 0 5.5,12 h -1 A 0.5,0.5 0 0 0 4,12.5 M 7.5,6 A 0.5,0.5 0 0 0 7,6.5 v 1 A 0.5,0.5 0 0 0 7.5,8 h 1 A 0.5,0.5 0 0 0 9,7.5 v -1 A 0.5,0.5 0 0 0 8.5,6 Z M 7,9.5 v 1 A 0.5,0.5 0 0 0 7.5,11 h 1 A 0.5,0.5 0 0 0 9,10.5 v -1 A 0.5,0.5 0 0 0 8.5,9 h -1 A 0.5,0.5 0 0 0 7,9.5 M 7.5,12 A 0.5,0.5 0 0 0 7,12.5 v 1 A 0.5,0.5 0 0 0 7.5,14 h 1 A 0.5,0.5 0 0 0 9,13.5 v -1 A 0.5,0.5 0 0 0 8.5,12 Z M 10,6.5 v 1 A 0.5,0.5 0 0 0 10.5,8 h 1 A 0.5,0.5 0 0 0 12,7.5 v -1 A 0.5,0.5 0 0 0 11.5,6 h -1 A 0.5,0.5 0 0 0 10,6.5 M 10.5,9 A 0.5,0.5 0 0 0 10,9.5 v 4 a 0.5,0.5 0 0 0 0.5,0.5 h 1 A 0.5,0.5 0 0 0 12,13.5 v -4 A 0.5,0.5 0 0 0 11.5,9 Z"
         id="path1-5" /></g><g
       style="fill:currentColor"
       id="g23"
       transform="matrix(0.26458333,0,0,0.26458333,68.541019,7.7959504)"><path
         d="m 8.5,11.5 a 0.5,0.5 0 0 1 -1,0 V 7.707 L 6.354,8.854 A 0.5006316,0.5006316 0 1 1 5.646,8.146 l 2,-2 a 0.5,0.5 0 0 1 0.708,0 l 2,2 A 0.5006316,0.5006316 0 0 1 9.646,8.854 L 8.5,7.707 Z"
         id="path1-8" /><path
         d="M 14,14 V 4.5 L 9.5,0 H 4 A 2,2 0 0 0 2,2 v 12 a 2,2 0 0 0 2,2 h 8 a 2,2 0 0 0 2,-2 M 9.5,3 A 1.5,1.5 0 0 0 11,4.5 h 2 V 14 a 1,1 0 0 1 -1,1 H 4 A 1,1 0 0 1 3,14 V 2 A 1,1 0 0 1 4,1 h 5.5 z"
         id="path2" /></g><g
       style="fill:currentColor"
       id="g24"
       transform="matrix(0.26458333,0,0,0.26458333,13.060298,8.1776984)"><path
         d="M 11,6 A 3,3 0 1 1 5,6 3,3 0 0 1 11,6"
         id="path1-2" /><path
         fill-rule="evenodd"
         d="M 0,8 A 8,8 0 1 1 16,8 8,8 0 0 1 0,8 M 8,1 A 7,7 0 0 0 2.532,12.37 C 3.242,11.226 4.805,10 8,10 c 3.195,0 4.757,1.225 5.468,2.37 A 7,7 0 0 0 8,1"
         id="path2-5" /></g><path
       style="fill:none;stroke:#000000;stroke-width:2.5;stroke-linecap:butt;stroke-linejoin:miter;stroke-miterlimit:2.6;stroke-dasharray:none;stroke-opacity:1;marker-start:url(#marker17-1)"
       d="m 123.86045,27.805766 h -7.12419"
       id="path16-4-33" /><path
       style="fill:none;stroke:#000000;stroke-width:2.50001;stroke-linecap:butt;stroke-linejoin:miter;stroke-miterlimit:2.6;stroke-dasharray:none;stroke-opacity:1;marker-start:url(#RoundedArrow)"
       d="m 149.53713,34.470637 v -0.09894"
       id="path16-4-33-5" /><path
       style="fill:none;stroke:#000000;stroke-width:2.50001;stroke-linecap:butt;stroke-linejoin:miter;stroke-miterlimit:2.6;stroke-dasharray:none;stroke-opacity:1;marker-start:url(#RoundedArrow-1)"
       d="m 150.01996,47.970837 v -0.09894"
       id="path16-4-33-5-1" /><path
       style="fill:none;stroke:#000000;stroke-width:2.50001;stroke-linecap:butt;stroke-linejoin:miter;stroke-miterlimit:2.6;stroke-dasharray:none;stroke-opacity:1;marker-start:url(#RoundedArrow-2)"
       d="m 150.54912,62.787504 v -0.09894"
       id="path16-4-33-5-0" /></g></svg>
